<svg xmlns="http://www.w3.org/2000/svg" fill="#003a77" viewBox="0 0 54 16"><g opacity=".8"><ellipse cx="12.96" cy="12.689" rx="2.835" ry="2.776"/><path d="M22.815 4.23h3.51v4.89c0 2.776-2.295 5.023-5.13 5.023s-5.13-2.247-5.13-5.022V4.23h3.51v4.89c0 .926.675 1.719 1.755 1.719.945 0 1.755-.661 1.755-1.718l-.27-4.891Zm4.86 0h3.51v9.517h-3.51V4.23Zm9.855 3.04c.675 0 1.215.397 1.485.793l2.97-1.718c-.81-1.586-2.565-2.512-4.59-2.512-2.835 0-5.13 2.247-5.13 5.023s2.295 5.023 5.13 5.023c2.025 0 3.51-1.057 4.59-2.511l-2.97-1.719c-.27.661-.945.926-1.485.926-.945 0-1.755-.661-1.755-1.719 0-1.057.675-1.586 1.755-1.586ZM54 13.747l-5.265-4.759 4.86-4.758h-4.59L46.17 7.006V.264h-3.375v13.483h3.375V10.97l2.835 2.776H54ZM9.18 12.689c0-2.114 1.62-3.7 3.78-3.7.405 0 .675 0 1.08.132.27-.661.27-1.322.27-2.115C14.31 3.172 11.07 0 7.155 0S0 3.172 0 7.006c0 3.833 3.24 7.005 7.155 7.005.675 0 1.35-.132 2.16-.264-.135-.397-.135-.661-.135-1.058Zm-5.4-5.551C3.78 5.288 5.4 3.7 7.29 3.7c1.89 0 3.375 1.586 3.375 3.437 0 1.85-1.485 3.304-3.375 3.304-2.025 0-3.51-1.454-3.51-3.304Z"/></g></svg>